<svg width="155" height="155" viewBox="0 0 155 155" fill="none" xmlns="http://www.w3.org/2000/svg">
<circle cx="77.5" cy="77.5" r="77.5" fill="#988265"/>
<path d="M64.169 67.6004L64.1639 67.6084L43.415 39.3903L41.6571 37H27.4991L57.0067 77.1217L26 117.502H40.3092L71.1878 77.1377L64.169 67.6004Z" fill="white"/>
<path d="M92.1931 67.6004L92.1879 67.6084L69.9784 37.4046L69.6786 37H55.5206L85.0308 77.1217L54.0215 117.502H68.3307L92.1623 86.6457L115.233 117.502H129.409L99.2093 77.1377L92.1931 67.6004Z" fill="white"/>
<path d="M98.8248 58.835C97.3642 60.7648 97.3744 63.4852 98.8504 65.4044L103.501 71.4547L129.529 37H115.345L98.8248 58.835Z" fill="white"/>
</svg>
